<svg width="320" height="240" viewBox="0 0 320 240" fill="none" xmlns="http://www.w3.org/2000/svg">
<path d="M308.343 228.8L309.138 198.579V183.918C308.354 183.334 306.513 182.006 305.277 181.464C292.7 175.954 277.015 177.437 263.692 181.661C250.369 185.884 238.491 192.577 225.593 197.583C224.365 198.06 222.954 198.528 221.682 198.133C219.519 197.461 219.552 194.841 220.921 193.334C222.29 191.827 224.463 190.909 225.911 189.45C229.204 186.132 227.618 180.903 223.785 177.984C219.951 175.066 214.56 173.942 209.367 173.189C192.592 170.755 175.377 171.075 158.401 172.312C109.436 175.881 60.6562 186.035 17.5883 205.123C13.5907 206.895 11.0031 208.117 10.3999 208.405V228.8H308.343Z" fill="#E0EBFE"/>
<path d="M309.138 228.8V211.634C291.76 216.202 269.476 221.603 250.932 224.468C232.249 227.355 212.705 227.926 194.863 221.675C171.472 213.48 152.532 194.141 128.182 189.52C115.642 187.14 102.707 188.915 90.1567 191.24C61.8675 196.481 37.0753 203.967 10.3999 214.601V228.8H309.138Z" fill="#D9E021"/>
<path d="M309.2 151.215L299.321 166.533C299.25 166.62 299.17 166.711 299.106 166.808L279.463 196.384C278.393 198 278.693 200.44 280.309 201.295H280.31C281.585 202.434 283.962 201.9 284.745 200.791L286.33 198.472C287.4 196.857 289.512 196.454 291.127 197.593H291.128C292.743 198.447 293.32 200.781 292.25 202.397L288.426 207.983C287.704 209.189 288.317 211.26 289.566 212.115H289.567C290.866 212.969 293.205 212.646 294.023 211.405L297.705 206.122C298.775 204.506 300.921 204.142 302.537 205.281H302.538C304.153 206.135 304.693 208.383 303.623 209.998L295.771 221.826L295.612 222.042C294.761 223.379 295.416 225.497 296.715 226.351H296.716C298.332 227.49 300.528 226.981 301.598 225.366L309.2 213.949V151.215Z" fill="#AFCCFC"/>
<path d="M33.8593 228.254C33.8175 228.254 33.7753 228.251 33.7327 228.247C33.3551 228.207 33.1067 227.94 33.1 227.567C33.0929 227.157 33.3969 226.637 33.7995 226.579C34.0016 226.552 34.272 226.64 34.3919 226.974C34.5092 226.74 34.5775 226.492 34.5996 226.406C41.9598 197.357 65.9052 155.759 74.1924 144.102L74.8423 144.564C66.5798 156.186 42.7068 197.655 35.3727 226.601C35.1072 227.647 34.5473 228.254 33.8593 228.254ZM33.9953 227.339C33.9721 227.358 33.9448 227.402 33.925 227.447C34.0983 227.41 34.2377 227.249 34.3441 227.063L33.6457 227.252C33.6636 227.283 33.7163 227.34 33.8029 227.363C33.8963 227.387 33.9725 227.357 33.9953 227.339Z" fill="#D9E021"/>
<path d="M46.295 228.381L45.5095 228.245C50.9709 196.56 50.9892 164.426 45.5633 132.736L46.3492 132.602C51.7903 164.381 51.772 196.606 46.295 228.381Z" fill="#D9E021"/>
<path d="M260.767 228.512C252.18 213.143 243.264 197.673 234.267 182.532C232.141 178.955 229.365 175.778 225.779 172.82L226.539 171.897C230.234 174.944 233.098 178.222 235.294 181.92C243.804 196.24 252.241 210.854 260.396 225.399L260.555 225.322L261.828 227.961L260.767 228.512Z" fill="#D9E021"/>
<path d="M269.81 225.42C269.639 225.42 269.465 225.368 269.306 225.264C268.977 225.05 268.698 224.589 268.827 224.156C268.907 223.891 269.12 223.704 269.393 223.647C264.398 212.484 256.656 202.615 249.168 193.071C248.37 192.054 247.573 191.038 246.78 190.022L247.723 189.286C248.515 190.302 249.311 191.316 250.108 192.332C257.66 201.958 265.469 211.912 270.524 223.245C271.013 224.341 270.706 224.921 270.363 225.214C270.202 225.35 270.008 225.42 269.81 225.42ZM269.573 224.155L269.57 224.825C269.693 224.835 269.845 224.751 269.935 224.588C270.018 224.437 269.988 224.299 269.969 224.269C269.924 224.223 269.726 224.183 269.587 224.303C269.586 224.303 269.586 224.304 269.586 224.304C269.583 224.304 269.592 224.26 269.573 224.155Z" fill="#D9E021"/>
<path d="M294.029 224.073C287.778 215.124 278.34 207.868 270.013 201.467C268.175 200.053 266.438 198.718 264.734 197.368L265.476 196.431C267.174 197.775 268.907 199.107 270.742 200.518C279.138 206.972 288.652 214.288 295.009 223.387L294.029 224.073Z" fill="#D9E021"/>
<g opacity="0.27">
<path opacity="0.27" d="M227.829 227.845L224.898 224.912V227.845H227.829Z" fill="#D9E021"/>
<path opacity="0.27" d="M221.322 227.845V221.335L218.27 218.281V227.845H221.322Z" fill="#D9E021"/>
<path opacity="0.27" d="M214.694 227.845V214.703L211.641 211.649V227.845H214.694Z" fill="#D9E021"/>
<path opacity="0.27" d="M208.066 227.845V208.072L205.013 205.018V227.845H208.066Z" fill="#D9E021"/>
<path opacity="0.27" d="M201.436 227.845V201.44L198.383 198.386V227.845H201.436Z" fill="#D9E021"/>
<path opacity="0.27" d="M194.808 227.845V194.809L191.755 191.755V227.845H194.808Z" fill="#D9E021"/>
</g>
<path d="M116.9 169.204C116.844 168.969 116.604 168.827 116.37 168.884C116.136 168.94 115.994 169.18 116.051 169.414C116.107 169.649 116.347 169.791 116.58 169.734C116.815 169.677 116.959 169.441 116.9 169.204ZM89.7676 133.439C89.8968 133.228 89.8296 132.952 89.6182 132.823C89.4288 132.7 89.1748 132.753 89.0516 132.942C89.0407 132.957 89.0307 132.975 89.0243 132.993C88.8958 133.193 88.9526 133.458 89.1517 133.589C89.3623 133.713 89.6387 133.65 89.7676 133.439ZM102.345 152.437C102.53 152.276 102.567 152.002 102.43 151.798C102.28 151.598 101.993 151.559 101.792 151.712C101.592 151.862 101.553 152.15 101.706 152.351C101.869 152.535 102.141 152.573 102.345 152.437ZM158.079 134.86C158.462 134.6 158.567 134.081 158.315 133.691C158.085 133.307 157.588 133.182 157.206 133.41C157.193 133.418 157.18 133.424 157.169 133.434C156.786 133.694 156.68 134.213 156.933 134.603C157.177 134.99 157.691 135.106 158.079 134.86ZM141.066 145.935C141.451 145.672 141.549 145.148 141.284 144.763C141.027 144.386 140.515 144.281 140.132 144.531C139.744 144.777 139.629 145.289 139.875 145.677C140.148 146.061 140.666 146.172 141.066 145.935ZM124.013 157.011C124.399 156.764 124.511 156.254 124.264 155.868C124.259 155.861 124.253 155.853 124.248 155.845C124.018 155.462 123.522 155.336 123.139 155.564C123.126 155.572 123.113 155.578 123.102 155.588C122.719 155.857 122.608 156.375 122.845 156.779C123.105 157.159 123.625 157.264 124.013 157.011ZM165.486 177.661C165.388 177.21 164.945 176.925 164.493 177.026C164.043 177.123 163.758 177.568 163.858 178.019C163.955 178.46 164.385 178.744 164.829 178.659C165.28 178.559 165.572 178.117 165.486 177.661ZM145.509 181.377C145.41 180.927 144.967 180.641 144.516 180.742C144.066 180.839 143.781 181.284 143.881 181.736C143.978 182.176 144.408 182.46 144.851 182.376C145.301 182.278 145.595 181.832 145.509 181.377ZM123.535 112.73C123.789 112.342 123.687 111.821 123.301 111.561C122.93 111.3 122.419 111.394 122.158 111.765C122.156 111.767 122.155 111.769 122.153 111.772C121.878 112.122 121.941 112.628 122.291 112.903C122.308 112.915 122.324 112.928 122.344 112.943C122.737 113.19 123.252 113.1 123.535 112.73ZM112.019 129.49C112.269 129.099 112.176 128.581 111.809 128.3C111.42 128.046 110.899 128.15 110.64 128.534C110.38 128.915 110.477 129.436 110.857 129.695C110.862 129.698 110.867 129.702 110.87 129.704C111.241 129.964 111.751 129.871 112.01 129.502C112.016 129.495 112.017 129.492 112.019 129.49ZM100.526 146.226C100.786 145.865 100.709 145.362 100.348 145.103C100.339 145.096 100.327 145.087 100.316 145.082C99.9462 144.808 99.4237 144.888 99.1495 145.258C99.1406 145.27 99.1331 145.28 99.1245 145.291C98.8634 145.678 98.9661 146.202 99.3493 146.462C99.7359 146.723 100.26 146.62 100.52 146.237C100.523 146.231 100.524 146.228 100.526 146.226ZM168.606 197.347C168.568 196.939 168.209 196.635 167.8 196.665C167.39 196.699 167.085 197.06 167.118 197.472C167.15 197.884 167.513 198.187 167.924 198.154C168.333 198.115 168.637 197.757 168.606 197.347ZM133.119 130.216C133.377 129.883 133.331 129.409 133.014 129.131C132.709 128.872 132.252 128.909 131.993 129.213C131.985 129.223 131.98 129.23 131.973 129.24C131.701 129.551 131.734 130.023 132.047 130.292C132.051 130.295 132.053 130.297 132.059 130.301C132.377 130.553 132.84 130.518 133.119 130.216ZM121.478 144.083C121.736 143.765 121.688 143.3 121.374 143.041C121.069 142.782 120.613 142.819 120.353 143.123C120.346 143.133 120.34 143.14 120.333 143.15C120.061 143.46 120.094 143.933 120.404 144.204C120.409 144.207 120.411 144.209 120.417 144.213C120.746 144.461 121.217 144.405 121.478 144.083ZM109.819 158.014C110.09 157.704 110.058 157.231 109.748 156.96C109.743 156.957 109.741 156.955 109.735 156.951C109.447 156.689 109 156.713 108.738 157.002C108.722 157.019 108.707 157.038 108.692 157.057C108.421 157.368 108.453 157.841 108.763 158.112C108.768 158.115 108.77 158.117 108.776 158.121C109.096 158.366 109.555 158.321 109.819 158.014ZM149.946 166.248C150.306 166.045 150.44 165.592 150.244 165.227C150.055 164.863 149.61 164.721 149.246 164.909C148.883 165.105 148.732 165.552 148.905 165.927C149.106 166.3 149.568 166.441 149.946 166.248ZM133.85 174.624C134.208 174.452 134.362 174.023 134.191 173.665C134.185 173.653 134.177 173.639 134.172 173.625C133.983 173.261 133.538 173.118 133.175 173.306C132.812 173.503 132.661 173.95 132.833 174.325C133.032 174.685 133.485 174.819 133.85 174.624ZM97.4755 120.776C97.601 120.404 97.403 120.003 97.0325 119.875C97.0168 119.871 97.0034 119.864 96.9899 119.862C96.6019 119.728 96.1757 119.934 96.0405 120.324C96.0375 120.333 96.0342 120.342 96.033 120.348C95.9262 120.746 96.1496 121.158 96.5429 121.286C96.9294 121.411 97.3436 121.196 97.4691 120.809C97.4706 120.799 97.471 120.787 97.4755 120.776ZM92.0347 138.095C92.1569 137.697 91.9421 137.273 91.5473 137.138C91.145 137.022 90.7226 137.254 90.6079 137.657C90.4966 138.04 90.7043 138.445 91.0797 138.58C91.4618 138.718 91.8864 138.518 92.0235 138.135C92.0276 138.124 92.0325 138.108 92.0347 138.095ZM184.194 186.038C184.606 185.794 184.758 185.273 184.537 184.847C184.312 184.426 183.791 184.263 183.369 184.483C182.952 184.723 182.799 185.251 183.027 185.674C183.252 186.095 183.772 186.258 184.194 186.038ZM165.717 195.898C166.14 195.675 166.301 195.152 166.08 194.73C165.86 194.308 165.335 194.146 164.913 194.367C164.49 194.59 164.329 195.113 164.55 195.535C164.773 195.958 165.296 196.119 165.717 195.898ZM116.483 129.581C116.61 129.112 116.35 128.627 115.888 128.475C115.422 128.35 114.942 128.629 114.819 129.097C114.698 129.547 114.955 130.011 115.397 130.153C115.854 130.281 116.332 130.031 116.483 129.581ZM110.402 149.62C110.53 149.163 110.281 148.685 109.83 148.535C109.373 148.393 108.887 148.649 108.746 149.107C108.604 149.565 108.86 150.05 109.318 150.192C109.774 150.325 110.255 150.07 110.402 149.62ZM150.846 159.616C151.129 159.234 151.073 158.699 150.722 158.382C150.344 158.094 149.806 158.159 149.509 158.529C149.203 158.886 149.242 159.424 149.602 159.731C149.606 159.734 149.611 159.739 149.616 159.742C149.987 160.049 150.537 159.992 150.846 159.616C150.845 159.618 150.846 159.616 150.846 159.616ZM137.547 175.819C137.852 175.443 137.796 174.892 137.424 174.586C137.424 174.586 137.424 174.586 137.422 174.584C137.061 174.289 136.526 174.346 136.234 174.709C135.932 175.076 135.982 175.618 136.347 175.919C136.704 176.224 137.241 176.175 137.547 175.819ZM163.863 165.69C164.167 165.329 164.121 164.786 163.758 164.479C163.395 164.171 162.854 164.22 162.547 164.583C162.251 164.937 162.285 165.462 162.627 165.772C162.995 166.089 163.545 166.052 163.863 165.69ZM149.97 181.255C150.286 180.891 150.249 180.34 149.886 180.022C149.531 179.72 148.997 179.749 148.674 180.084C148.362 180.455 148.39 181.002 148.735 181.338C149.104 181.646 149.646 181.605 149.97 181.255ZM122.084 153.162C122.231 152.705 121.986 152.212 121.533 152.055C121.086 151.903 120.6 152.139 120.449 152.585C120.278 153.018 120.489 153.507 120.92 153.678C120.932 153.684 120.943 153.688 120.957 153.69C121.403 153.861 121.904 153.636 122.072 153.187C122.078 153.18 122.081 153.172 122.084 153.162Z" fill="#A1C3FC"/>
<path d="M19.2756 135.91C19.2192 135.676 18.9798 135.533 18.7459 135.59C18.5114 135.646 18.3691 135.886 18.4262 136.121C18.4826 136.355 18.722 136.498 18.9558 136.441C19.1897 136.384 19.3342 136.147 19.2756 135.91ZM60.4539 101.566C60.8372 101.306 60.9425 100.787 60.69 100.397C60.4599 100.014 59.9635 99.8883 59.5814 100.116C59.5676 100.124 59.5553 100.13 59.5441 100.14C59.1609 100.4 59.0556 100.92 59.308 101.309C59.5519 101.697 60.0666 101.813 60.4539 101.566ZM43.4406 112.642C43.8265 112.379 43.9236 111.854 43.6595 111.47C43.4022 111.092 42.8897 110.988 42.5069 111.238C42.1188 111.484 42.0042 111.996 42.2503 112.384C42.523 112.768 43.0406 112.878 43.4406 112.642ZM26.3885 123.718C26.7739 123.47 26.8864 122.961 26.6391 122.575C26.6339 122.567 26.6283 122.559 26.6231 122.552C26.393 122.168 25.8966 122.043 25.5145 122.27C25.5007 122.279 25.4884 122.285 25.4772 122.294C25.0943 122.563 24.9826 123.081 25.2202 123.486C25.4805 123.866 26.0001 123.97 26.3885 123.718ZM67.8612 144.368C67.763 143.917 67.3196 143.632 66.8681 143.733C66.4184 143.83 66.1334 144.275 66.2335 144.726C66.3302 145.167 66.7605 145.451 67.2038 145.367C67.6554 145.266 67.9471 144.823 67.8612 144.368ZM47.8838 148.083C47.7856 147.633 47.3422 147.348 46.8907 147.449C46.441 147.546 46.1564 147.991 46.2561 148.442C46.3528 148.883 46.7831 149.167 47.2264 149.082C47.6765 148.984 47.9697 148.539 47.8838 148.083ZM25.91 79.4364C26.164 79.0482 26.0628 78.5277 25.6762 78.2672C25.305 78.0064 24.7944 78.0998 24.5337 78.4712C24.5318 78.4735 24.5303 78.4757 24.5285 78.478C24.2539 78.8285 24.3167 79.334 24.6667 79.6091C24.6835 79.6218 24.6999 79.6341 24.7197 79.649C25.1122 79.8968 25.6273 79.8071 25.91 79.4364ZM14.3947 96.1969C14.6442 95.8053 14.5519 95.2881 14.184 95.0071C13.7959 94.753 13.2745 94.8569 13.0153 95.241C12.7554 95.6214 12.8525 96.1423 13.2327 96.4013C13.2372 96.4046 13.2424 96.4087 13.245 96.4102C13.6163 96.6711 14.1269 96.5776 14.3857 96.2085C14.3909 96.2014 14.3928 96.1991 14.3947 96.1969ZM70.9818 164.054C70.9437 163.645 70.5848 163.342 70.175 163.372C69.7657 163.406 69.4601 163.767 69.4926 164.179C69.5251 164.591 69.8878 164.894 70.2994 164.861C70.708 164.822 71.0117 164.464 70.9818 164.054ZM35.4944 96.9225C35.7521 96.5892 35.7066 96.1154 35.3887 95.8382C35.084 95.5788 34.6275 95.6154 34.368 95.92C34.3605 95.9297 34.3553 95.9368 34.3482 95.9465C34.0762 96.2574 34.1091 96.7297 34.4217 96.9984C34.4262 97.0017 34.4285 97.0036 34.4341 97.0074C34.7523 97.2592 35.2154 97.2241 35.4944 96.9225ZM23.8532 110.79C24.1109 110.472 24.0623 110.006 23.7486 109.748C23.4438 109.489 22.9874 109.525 22.7278 109.83C22.7204 109.839 22.7151 109.847 22.708 109.856C22.4361 110.167 22.469 110.639 22.779 110.911C22.7835 110.914 22.7857 110.916 22.7913 110.92C23.1215 111.168 23.5921 111.112 23.8532 110.79ZM12.1936 124.721C12.4655 124.41 12.4327 123.938 12.1227 123.667C12.1182 123.663 12.1159 123.661 12.1103 123.658C11.822 123.395 11.3749 123.42 11.1131 123.708C11.0967 123.726 11.0817 123.745 11.0675 123.764C10.7956 124.075 10.8285 124.547 11.1385 124.819C11.143 124.822 11.1452 124.824 11.1508 124.828C11.4709 125.072 11.9299 125.027 12.1936 124.721ZM52.321 132.955C52.6803 132.752 52.8144 132.299 52.6187 131.934C52.4297 131.57 51.9848 131.427 51.621 131.615C51.258 131.812 51.1071 132.259 51.2797 132.634C51.481 133.006 51.9426 133.147 52.321 132.955ZM36.225 141.33C36.5832 141.159 36.7371 140.73 36.566 140.372C36.5597 140.36 36.5522 140.346 36.5473 140.332C36.3583 139.967 35.9135 139.825 35.5497 140.013C35.1867 140.21 35.0358 140.657 35.2083 141.032C35.4074 141.391 35.8597 141.526 36.225 141.33ZM86.5691 152.744C86.981 152.501 87.1331 151.98 86.9116 151.553C86.6867 151.132 86.1661 150.969 85.7444 151.19C85.3272 151.429 85.1744 151.957 85.4019 152.381C85.6267 152.802 86.1474 152.965 86.5691 152.744ZM68.0924 162.604C68.5156 162.381 68.6762 161.858 68.4554 161.436C68.2347 161.015 67.7099 160.852 67.2882 161.073C66.8651 161.296 66.7045 161.819 66.9252 162.241C67.1486 162.665 67.6711 162.825 68.0924 162.604ZM18.858 96.2869C18.985 95.8183 18.7254 95.333 18.2638 95.1816C17.7976 95.0564 17.3173 95.3348 17.1944 95.803C17.0738 96.2537 17.33 96.7178 17.7726 96.8594C18.2286 96.9879 18.7067 96.7376 18.858 96.2869ZM12.777 116.326C12.9055 115.87 12.6556 115.392 12.2052 115.242C11.7477 115.1 11.2621 115.356 11.1209 115.814C10.9794 116.271 11.2352 116.757 11.6928 116.898C12.1488 117.031 12.6299 116.776 12.777 116.326ZM53.2215 126.322C53.5042 125.941 53.4482 125.406 53.0967 125.088C52.7188 124.8 52.1813 124.866 51.884 125.236C51.5781 125.593 51.6173 126.131 51.9766 126.438C51.9811 126.441 51.9863 126.446 51.9912 126.449C52.3628 126.755 52.9122 126.699 53.2215 126.322C53.22 126.325 53.2215 126.322 53.2215 126.322ZM39.9219 142.525C40.2274 142.149 40.1714 141.599 39.7994 141.293C39.7994 141.293 39.7994 141.293 39.7971 141.291C39.4356 140.996 38.9007 141.052 38.609 141.416C38.3073 141.782 38.3573 142.325 38.7222 142.626C39.0793 142.93 39.616 142.882 39.9219 142.525ZM66.2376 132.396C66.5424 132.035 66.4961 131.492 66.133 131.186C65.77 130.878 65.2295 130.927 64.9221 131.29C64.6263 131.643 64.6599 132.169 65.0017 132.478C65.3692 132.796 65.9194 132.759 66.2376 132.396ZM52.3453 147.962C52.6609 147.598 52.6239 147.047 52.2612 146.729C51.9056 146.427 51.3723 146.455 51.0492 146.791C50.737 147.161 50.765 147.709 51.1105 148.045C51.4799 148.352 52.0214 148.312 52.3453 147.962ZM24.459 119.868C24.6065 119.412 24.3615 118.918 23.9077 118.761C23.4614 118.609 22.9755 118.846 22.8238 119.292C22.6531 119.724 22.8638 120.214 23.2955 120.385C23.3071 120.39 23.318 120.394 23.3318 120.397C23.7785 120.568 24.2793 120.342 24.4474 119.893C24.4534 119.887 24.4564 119.878 24.459 119.868Z" fill="#A1C3FC"/>
<g opacity="0.26">
<path opacity="0.26" d="M139.346 228.244L134.382 223.277V228.244H139.346Z" fill="white"/>
<path opacity="0.26" d="M128.326 228.244V217.219L123.156 212.046V228.244H128.326Z" fill="white"/>
<path opacity="0.26" d="M117.099 228.244V205.987L111.929 200.814V228.244H117.099Z" fill="white"/>
<path opacity="0.26" d="M105.873 228.244V194.756L100.702 189.583V228.244H105.873Z" fill="white"/>
<path opacity="0.26" d="M94.6462 228.243V183.524L89.4758 178.351V228.243H94.6462Z" fill="white"/>
<path opacity="0.26" d="M83.4197 228.244V172.292L78.249 167.12V228.244H83.4197Z" fill="white"/>
</g>
<g opacity="0.26">
<path opacity="0.26" d="M173.225 203.492L175.215 201.501H171.235L173.225 203.492Z" fill="white"/>
<path opacity="0.26" d="M162.233 201.501L168.724 207.994L170.797 205.921L166.379 201.501H162.233Z" fill="white"/>
<path opacity="0.26" d="M153.231 201.501L164.223 212.497L166.296 210.424L157.377 201.501H153.231Z" fill="white"/>
<path opacity="0.26" d="M144.23 201.501L159.722 217L161.795 214.926L148.376 201.501H144.23Z" fill="white"/>
<path opacity="0.26" d="M135.228 201.501L155.222 221.503L157.294 219.429L139.374 201.501H135.228Z" fill="white"/>
<path opacity="0.26" d="M126.226 201.501L150.721 226.006L152.793 223.932L130.372 201.501H126.226Z" fill="white"/>
</g>
<path opacity="0.45" d="M35.393 144.905L29.8899 141.118C30.9846 142.601 32.9048 143.903 35.393 144.905Z" fill="#D9E021"/>
<path opacity="0.45" d="M28.9434 139.052L39.1624 146.084C39.6453 146.199 40.1402 146.303 40.6459 146.398L28.8657 138.291C28.8683 138.548 28.8949 138.801 28.9434 139.052Z" fill="#D9E021"/>
<path opacity="0.45" d="M29.0532 137.005L43.2657 146.786C43.6586 146.83 44.0556 146.867 44.4575 146.899L29.2635 136.443C29.1806 136.628 29.1107 136.816 29.0532 137.005Z" fill="#D9E021"/>
<path opacity="0.45" d="M29.8518 135.433L46.6772 147.012C46.9824 147.019 47.289 147.022 47.5979 147.022C47.6386 147.022 47.6786 147.022 47.7193 147.022L30.2148 134.975C30.0852 135.126 29.9635 135.278 29.8518 135.433Z" fill="#D9E021"/>
<path opacity="0.45" d="M31.0503 134.136L49.6961 146.967C50.0121 146.951 50.3255 146.931 50.6362 146.907L31.5164 133.749C31.3539 133.876 31.1986 134.005 31.0503 134.136Z" fill="#D9E021"/>
<path opacity="0.45" d="M32.5337 133.035L52.43 146.727C52.7187 146.691 53.0045 146.652 53.2876 146.61L33.082 132.705C32.8941 132.813 32.7111 132.923 32.5337 133.035Z" fill="#D9E021"/>
<path opacity="0.45" d="M34.2512 132.095L54.9293 146.325C55.1941 146.272 55.4563 146.216 55.7151 146.158L34.8709 131.813C34.6598 131.905 34.4533 131.999 34.2512 132.095Z" fill="#D9E021"/>
<path opacity="0.45" d="M36.1755 131.297L57.2182 145.778C57.4617 145.71 57.7011 145.639 57.9371 145.565L36.8605 131.061C36.6282 131.138 36.4 131.216 36.1755 131.297Z" fill="#D9E021"/>
<path opacity="0.45" d="M38.2957 130.634L59.3106 145.096C59.5329 145.013 59.751 144.927 59.9646 144.839L39.0464 130.443C38.7924 130.504 38.5422 130.568 38.2957 130.634Z" fill="#D9E021"/>
<path opacity="0.45" d="M40.6143 130.108L61.2057 144.278C61.4059 144.179 61.6016 144.078 61.7921 143.975L41.4333 129.964C41.1573 130.009 40.8843 130.057 40.6143 130.108Z" fill="#D9E021"/>
<path opacity="0.45" d="M43.145 129.728L62.8916 143.317C63.0679 143.201 63.2382 143.082 63.4026 142.961L44.0399 129.636C43.7393 129.663 43.4408 129.694 43.145 129.728Z" fill="#D9E021"/>
<path opacity="0.45" d="M45.9167 129.513L64.3381 142.19C64.4857 142.053 64.6257 141.913 64.7583 141.772L46.9024 129.484C46.5715 129.49 46.2432 129.5 45.9167 129.513Z" fill="#D9E021"/>
<path opacity="0.45" d="M48.9832 129.501L65.4877 140.86C65.5976 140.694 65.6962 140.527 65.7851 140.357L50.0883 129.555C49.7234 129.532 49.3552 129.514 48.9832 129.501Z" fill="#D9E021"/>
<path opacity="0.45" d="M52.468 129.778L66.2121 139.236C66.2621 139.026 66.2965 138.814 66.3144 138.599L53.7685 129.965C53.342 129.896 52.908 129.833 52.468 129.778Z" fill="#D9E021"/>
<path opacity="0.45" d="M58.547 131.132C57.9662 130.935 57.36 130.754 56.7314 130.59L66.1642 137.082C66.0689 136.747 65.9341 136.418 65.7604 136.096L58.547 131.132Z" fill="#D9E021"/>
<path opacity="0.45" d="M201.643 190.941L193.077 185.046C194.781 187.354 197.77 189.381 201.643 190.941Z" fill="white"/>
<path opacity="0.45" d="M191.604 181.83L207.511 192.777C208.263 192.955 209.034 193.118 209.821 193.265L191.483 180.646C191.487 181.044 191.528 181.439 191.604 181.83Z" fill="white"/>
<path opacity="0.45" d="M191.774 178.644L213.898 193.87C214.509 193.937 215.128 193.996 215.753 194.045L192.102 177.768C191.972 178.057 191.864 178.349 191.774 178.644Z" fill="white"/>
<path opacity="0.45" d="M193.017 176.196L219.208 194.22C219.683 194.231 220.161 194.237 220.642 194.237C220.705 194.237 220.768 194.236 220.831 194.236L193.582 175.484C193.381 175.718 193.191 175.956 193.017 176.196Z" fill="white"/>
<path opacity="0.45" d="M194.883 174.177L223.908 194.151C224.4 194.126 224.888 194.095 225.372 194.058L195.609 173.575C195.356 173.772 195.114 173.973 194.883 174.177Z" fill="white"/>
<path opacity="0.45" d="M197.193 172.463L228.165 193.777C228.614 193.721 229.059 193.661 229.499 193.595L198.046 171.949C197.753 172.117 197.469 172.288 197.193 172.463Z" fill="white"/>
<path opacity="0.45" d="M199.866 171L232.055 193.151C232.468 193.069 232.875 192.982 233.278 192.892L200.83 170.562C200.502 170.704 200.18 170.85 199.866 171Z" fill="white"/>
<path opacity="0.45" d="M202.861 169.758L235.618 192.3C235.996 192.193 236.369 192.083 236.737 191.969L203.928 169.391C203.566 169.509 203.211 169.632 202.861 169.758Z" fill="white"/>
<path opacity="0.45" d="M206.161 168.726L238.874 191.238C239.219 191.109 239.559 190.975 239.892 190.838L207.329 168.429C206.934 168.523 206.545 168.623 206.161 168.726Z" fill="white"/>
<path opacity="0.45" d="M209.771 167.907L241.825 189.966C242.137 189.811 242.442 189.654 242.738 189.493L211.046 167.683C210.616 167.753 210.192 167.828 209.771 167.907Z" fill="white"/>
<path opacity="0.45" d="M213.71 167.315L244.449 188.468C244.724 188.287 244.989 188.102 245.244 187.915L215.104 167.172C214.635 167.215 214.171 167.262 213.71 167.315Z" fill="white"/>
<path opacity="0.45" d="M218.025 166.981L246.7 186.715C246.93 186.501 247.148 186.284 247.354 186.064L219.559 166.935C219.045 166.944 218.533 166.96 218.025 166.981Z" fill="white"/>
<path opacity="0.45" d="M222.799 166.963L248.491 184.643C248.662 184.386 248.815 184.125 248.954 183.861L224.52 167.046C223.951 167.01 223.377 166.982 222.799 166.963Z" fill="white"/>
<path opacity="0.45" d="M228.223 167.393L249.618 182.116C249.697 181.789 249.75 181.459 249.778 181.125L230.248 167.685C229.583 167.576 228.908 167.479 228.223 167.393Z" fill="white"/>
<path opacity="0.45" d="M237.687 169.501C236.782 169.195 235.839 168.914 234.861 168.657L249.545 178.762C249.397 178.241 249.186 177.729 248.916 177.229L237.687 169.501Z" fill="white"/>
<path opacity="0.45" d="M53.7209 177.044L50.9111 175.11C51.4703 175.867 52.4507 176.532 53.7209 177.044Z" fill="#A1C3FC"/>
<path opacity="0.45" d="M50.4278 174.055L55.6459 177.646C55.8928 177.705 56.1453 177.758 56.4034 177.807L50.3882 173.667C50.3893 173.798 50.4031 173.927 50.4278 174.055Z" fill="#A1C3FC"/>
<path opacity="0.45" d="M50.4839 173.01L57.7414 178.004C57.9416 178.026 58.1451 178.046 58.3498 178.062L50.5911 172.723C50.5489 172.817 50.5134 172.913 50.4839 173.01Z" fill="#A1C3FC"/>
<path opacity="0.45" d="M50.8918 172.207L59.4835 178.173C59.6392 178.176 59.7961 178.231 59.9537 178.231C59.9746 178.231 59.9948 178.231 60.0157 178.231L51.0771 172.026C51.011 172.103 50.949 172.128 50.8918 172.207Z" fill="#A1C3FC"/>
<path opacity="0.45" d="M51.5037 171.545L61.0249 178.097C61.1863 178.089 61.3461 178.079 61.5049 178.067L51.7416 171.348C51.659 171.412 51.5795 171.478 51.5037 171.545Z" fill="#A1C3FC"/>
<path opacity="0.45" d="M52.2615 170.983L62.4214 177.975C62.569 177.956 62.715 177.936 62.8592 177.915L52.5416 170.814C52.4452 170.869 52.3519 170.925 52.2615 170.983Z" fill="#A1C3FC"/>
<path opacity="0.45" d="M53.1384 170.502L63.6973 177.769C63.8325 177.742 63.9666 177.713 64.0984 177.684L53.4544 170.359C53.3468 170.406 53.2415 170.454 53.1384 170.502Z" fill="#A1C3FC"/>
<path opacity="0.45" d="M54.1211 170.095L64.8663 177.49C64.9907 177.455 65.1128 177.419 65.2335 177.381L54.4711 169.975C54.3523 170.013 54.2354 170.053 54.1211 170.095Z" fill="#A1C3FC"/>
<path opacity="0.45" d="M55.2036 169.757L65.9347 177.141C66.0482 177.099 66.1595 177.055 66.2689 177.01L55.5872 169.659C55.4576 169.69 55.3295 169.723 55.2036 169.757Z" fill="#A1C3FC"/>
<path opacity="0.45" d="M56.3875 169.488L66.9022 176.724C67.0046 176.673 67.1043 176.622 67.2018 176.569L56.8058 169.415C56.665 169.438 56.5253 169.462 56.3875 169.488Z" fill="#A1C3FC"/>
<path opacity="0.45" d="M57.6797 169.294L67.7631 176.232C67.8531 176.173 67.9401 176.112 68.0241 176.051L58.1369 169.247C57.983 169.261 57.831 169.276 57.6797 169.294Z" fill="#A1C3FC"/>
<path opacity="0.45" d="M59.095 169.184L68.5016 175.658C68.577 175.588 68.6484 175.516 68.7163 175.444L59.5985 169.169C59.4296 169.172 59.2619 169.177 59.095 169.184Z" fill="#A1C3FC"/>
<path opacity="0.45" d="M60.6611 169.178L69.0892 174.978C69.1452 174.894 69.1956 174.808 69.2412 174.722L61.2259 169.205C61.0391 169.194 60.8509 169.185 60.6611 169.178Z" fill="#A1C3FC"/>
<path opacity="0.45" d="M62.4409 169.319L69.4594 174.149C69.4851 174.042 69.5027 173.933 69.5117 173.824L63.1054 169.415C62.8869 169.38 62.6654 169.347 62.4409 169.319Z" fill="#A1C3FC"/>
<path opacity="0.45" d="M65.5449 170.011C65.2484 169.91 64.9388 169.818 64.6179 169.734L69.435 173.048C69.3864 172.878 69.3173 172.71 69.2288 172.545L65.5449 170.011Z" fill="#A1C3FC"/>
<path d="M247.73 205.135C246.132 205.135 244.833 203.836 244.833 202.237C244.833 200.639 246.132 199.339 247.73 199.339C249.327 199.339 250.626 200.639 250.626 202.237C250.626 203.836 249.327 205.135 247.73 205.135ZM247.73 199.739C246.352 199.739 245.232 200.86 245.232 202.238C245.232 203.616 246.352 204.737 247.73 204.737C249.107 204.737 250.228 203.616 250.228 202.238C250.228 200.86 249.107 199.739 247.73 199.739Z" fill="white"/>
<path d="M247.729 206.832C245.197 206.832 243.137 204.771 243.137 202.238C243.137 199.704 245.197 197.643 247.729 197.643C250.262 197.643 252.322 199.704 252.322 202.238C252.322 204.771 250.261 206.832 247.729 206.832ZM247.729 198.042C245.417 198.042 243.536 199.925 243.536 202.238C243.536 204.551 245.417 206.433 247.729 206.433C250.042 206.433 251.923 204.551 251.923 202.238C251.923 199.924 250.042 198.042 247.729 198.042Z" fill="white"/>
<path d="M247.729 208.741C244.145 208.741 241.229 205.824 241.229 202.238C241.229 198.652 244.145 195.734 247.729 195.734C251.314 195.734 254.23 198.652 254.23 202.238C254.23 205.824 251.314 208.741 247.729 208.741ZM247.729 196.133C244.365 196.133 241.628 198.872 241.628 202.238C241.628 205.604 244.365 208.342 247.729 208.342C251.094 208.342 253.831 205.604 253.831 202.238C253.831 198.872 251.094 196.133 247.729 196.133Z" fill="white"/>
<path d="M247.73 210.862C242.977 210.862 239.109 206.993 239.109 202.238C239.109 197.483 242.976 193.614 247.73 193.614C252.483 193.614 256.35 197.483 256.35 202.238C256.35 206.993 252.483 210.862 247.73 210.862ZM247.73 194.012C243.196 194.012 239.508 197.702 239.508 202.237C239.508 206.773 243.197 210.463 247.73 210.463C252.263 210.463 255.951 206.773 255.951 202.237C255.951 197.703 252.263 194.012 247.73 194.012Z" fill="white"/>
<path d="M247.729 212.77C241.924 212.77 237.201 208.045 237.201 202.238C237.201 196.43 241.924 191.705 247.729 191.705C253.535 191.705 258.258 196.43 258.258 202.238C258.257 208.045 253.535 212.77 247.729 212.77ZM247.729 192.104C242.144 192.104 237.6 196.65 237.6 202.238C237.6 207.826 242.144 212.372 247.729 212.372C253.315 212.372 257.859 207.826 257.859 202.238C257.859 196.65 253.315 192.104 247.729 192.104Z" fill="white"/>
<g opacity="0.31">
<path opacity="0.31" d="M309.138 158.988V156.056L306.208 158.988H309.138Z" fill="#428DFC"/>
<path opacity="0.31" d="M299.579 165.62H309.138V162.565H302.632L299.579 165.62Z" fill="#428DFC"/>
<path opacity="0.31" d="M292.95 172.252H309.138V169.198H296.003L292.95 172.252Z" fill="#428DFC"/>
<path opacity="0.31" d="M286.321 178.883H309.138V175.829H289.374L286.321 178.883Z" fill="#428DFC"/>
<path opacity="0.31" d="M279.692 185.515H309.138V182.46H282.745L279.692 185.515Z" fill="#428DFC"/>
<path opacity="0.31" d="M273.064 192.146H309.138V189.092H276.117L273.064 192.146Z" fill="#428DFC"/>
</g>
<path d="M54.3355 219.143C54.2728 219.108 54.194 219.132 54.1592 219.195C54.1245 219.257 54.1484 219.337 54.2111 219.371C54.2739 219.406 54.3527 219.382 54.3874 219.319C54.4222 219.257 54.3994 219.177 54.3355 219.143ZM41.077 217.905C41.0568 217.834 40.9829 217.794 40.9127 217.814C40.8477 217.831 40.8085 217.897 40.8249 217.962C40.8256 217.967 40.8279 217.973 40.8305 217.978C40.8488 218.046 40.9175 218.087 40.9862 218.069C41.0553 218.049 41.0972 217.976 41.077 217.905ZM47.7518 218.964C47.7537 218.891 47.701 218.829 47.6293 218.818C47.5557 218.81 47.4893 218.865 47.4825 218.94C47.4754 219.014 47.5303 219.08 47.605 219.087C47.6775 219.088 47.7406 219.036 47.7518 218.964ZM55.0889 203.246C55.1087 203.11 55.0164 202.983 54.8805 202.96C54.7505 202.934 54.6235 203.017 54.5966 203.146C54.5958 203.151 54.5947 203.155 54.5944 203.159C54.5746 203.295 54.6668 203.423 54.8028 203.446C54.9365 203.47 55.065 203.381 55.0889 203.246ZM54.0968 209.19C54.1166 209.052 54.0218 208.926 53.8847 208.907C53.7506 208.887 53.6247 208.979 53.6027 209.112C53.5784 209.246 53.6677 209.374 53.8018 209.399C53.9404 209.416 54.0685 209.325 54.0968 209.19ZM53.0977 215.141C53.1209 215.007 53.0324 214.881 52.8983 214.857C52.8957 214.857 52.8927 214.857 52.8901 214.856C52.7601 214.83 52.6331 214.913 52.6062 215.042C52.6055 215.047 52.6043 215.051 52.604 215.055C52.586 215.193 52.6768 215.321 52.8128 215.351C52.948 215.37 53.075 215.277 53.0977 215.141ZM65.929 210.211C65.8109 210.142 65.6597 210.182 65.5909 210.301C65.5222 210.419 65.5622 210.57 65.681 210.639C65.7967 210.706 65.945 210.669 66.0152 210.555C66.0843 210.436 66.0459 210.283 65.929 210.211ZM62.7344 215.326C62.6164 215.258 62.4651 215.297 62.3964 215.416C62.3277 215.534 62.3676 215.686 62.4864 215.755C62.6022 215.822 62.7505 215.784 62.8207 215.671C62.8898 215.552 62.8513 215.399 62.7344 215.326ZM43.3236 206.365C43.2896 206.231 43.1555 206.149 43.0211 206.181C42.8896 206.21 42.8078 206.341 42.8366 206.472C42.8369 206.473 42.8369 206.474 42.8373 206.475C42.859 206.605 42.9819 206.693 43.1122 206.672C43.1182 206.671 43.1245 206.67 43.1316 206.668C43.2639 206.632 43.3479 206.501 43.3236 206.365ZM44.6768 212.245C44.6413 212.112 44.5098 212.029 44.3746 212.053C44.2413 212.087 44.1595 212.222 44.1913 212.356C44.2223 212.489 44.3556 212.572 44.4886 212.541C44.4904 212.54 44.4923 212.54 44.493 212.54C44.6245 212.511 44.7063 212.38 44.6779 212.25C44.6772 212.247 44.6772 212.246 44.6768 212.245ZM46.0296 218.117C46.0031 217.987 45.8776 217.903 45.7484 217.93C45.7446 217.931 45.7405 217.932 45.7372 217.933C45.6031 217.959 45.5161 218.089 45.5418 218.223C45.5426 218.228 45.5433 218.231 45.5441 218.236C45.5762 218.37 45.7114 218.453 45.8447 218.421C45.9792 218.389 46.0621 218.254 46.0304 218.121C46.03 218.118 46.0296 218.117 46.0296 218.117ZM70.8577 213.477C70.7606 213.403 70.6224 213.421 70.5465 213.516C70.4718 213.613 70.4898 213.752 70.5861 213.828C70.6825 213.903 70.8218 213.884 70.8973 213.788C70.9708 213.69 70.9533 213.553 70.8577 213.477ZM49.0677 207.775C49.0468 207.652 48.9336 207.567 48.8096 207.581C48.6919 207.596 48.6083 207.703 48.6228 207.821C48.6236 207.825 48.624 207.827 48.6247 207.831C48.6381 207.952 48.748 208.04 48.8693 208.026C48.8712 208.025 48.872 208.025 48.8738 208.025C48.9922 208.005 49.0778 207.897 49.0677 207.775ZM49.7635 213.103C49.7459 212.983 49.6343 212.9 49.5147 212.917C49.3971 212.932 49.3134 213.039 49.328 213.157C49.3287 213.161 49.3291 213.163 49.3299 213.167C49.3433 213.288 49.4531 213.376 49.5745 213.362C49.5764 213.362 49.5771 213.362 49.579 213.362C49.6996 213.339 49.7814 213.225 49.7635 213.103ZM50.4698 218.448C50.4563 218.326 50.3465 218.239 50.2251 218.252C50.2233 218.253 50.2225 218.253 50.2207 218.253C50.1053 218.263 50.0212 218.366 50.0317 218.481C50.0324 218.488 50.0335 218.495 50.0347 218.502C50.0481 218.624 50.1579 218.711 50.2793 218.698C50.2812 218.698 50.2819 218.697 50.2838 218.697C50.4014 218.677 50.484 218.567 50.4698 218.448ZM60.3179 211.321C60.3455 211.202 60.2734 211.082 60.1547 211.052C60.037 211.02 59.9167 211.089 59.885 211.206C59.8555 211.325 59.9227 211.448 60.0392 211.485C60.1606 211.515 60.2839 211.442 60.3179 211.321ZM58.9202 216.522C58.9546 216.41 58.8918 216.29 58.7791 216.256C58.7749 216.255 58.7705 216.254 58.7663 216.252C58.6487 216.22 58.5284 216.289 58.4967 216.406C58.4672 216.525 58.5344 216.648 58.6509 216.685C58.7697 216.713 58.8892 216.641 58.9202 216.522ZM39.8553 213.679C39.7993 213.577 39.6719 213.54 39.5696 213.595C39.5655 213.598 39.5613 213.599 39.5584 213.602C39.4512 213.66 39.4108 213.794 39.4691 213.902C39.4706 213.905 39.4717 213.907 39.4728 213.909C39.5382 214.012 39.673 214.046 39.7798 213.986C39.8848 213.926 39.921 213.792 39.8616 213.687C39.8594 213.685 39.8568 213.683 39.8553 213.679ZM42.549 218.343C42.4866 218.236 42.3506 218.198 42.242 218.257C42.1363 218.322 42.1019 218.461 42.1673 218.567C42.2289 218.668 42.3589 218.704 42.4634 218.649C42.5703 218.593 42.6117 218.46 42.5553 218.353C42.5542 218.35 42.5516 218.346 42.549 218.343ZM71.512 207.798C71.5415 207.659 71.4583 207.522 71.3204 207.485C71.1834 207.449 71.0433 207.531 71.0071 207.667C70.9757 207.806 71.0605 207.945 71.1987 207.981C71.3361 208.016 71.4758 207.935 71.512 207.798ZM69.9616 213.818C69.9979 213.681 69.9157 213.541 69.7794 213.505C69.6431 213.468 69.5022 213.551 69.466 213.687C69.4298 213.824 69.512 213.964 69.6483 214.001C69.785 214.037 69.925 213.955 69.9616 213.818ZM45.5919 211.287C45.5149 211.165 45.3569 211.125 45.2311 211.195C45.1101 211.272 45.075 211.433 45.1526 211.554C45.227 211.67 45.3797 211.707 45.4992 211.639C45.6188 211.565 45.6602 211.41 45.5919 211.287ZM48.7521 216.636C48.6781 216.517 48.5235 216.475 48.4002 216.544C48.2777 216.616 48.2359 216.773 48.3076 216.896C48.3793 217.018 48.5366 217.06 48.6594 216.988C48.7801 216.915 48.8208 216.759 48.7521 216.636ZM59.0487 209.794C59.0222 209.656 58.8937 209.56 58.754 209.574C58.6151 209.598 58.5217 209.73 58.543 209.869C58.5594 210.007 58.6849 210.106 58.8242 210.089C58.8261 210.089 58.828 210.089 58.8295 210.089C58.971 210.069 59.0689 209.937 59.0487 209.794C59.0491 209.795 59.0487 209.794 59.0487 209.794ZM59.9227 215.953C59.9018 215.811 59.7703 215.713 59.6288 215.733C59.6288 215.733 59.6288 215.733 59.628 215.733C59.4909 215.753 59.3961 215.881 59.417 216.018C59.4368 216.158 59.5653 216.256 59.7042 216.236C59.8424 216.219 59.9391 216.092 59.9227 215.953ZM62.9873 208.165C62.9697 208.026 62.8416 207.927 62.7019 207.945C62.5619 207.963 62.4644 208.091 62.4819 208.231C62.4999 208.366 62.6212 208.464 62.7576 208.452C62.9003 208.435 63.0026 208.307 62.9873 208.165ZM63.6028 214.326C63.5867 214.184 63.4586 214.081 63.3163 214.097C63.1789 214.114 63.0784 214.236 63.0866 214.375C63.1053 214.517 63.2304 214.621 63.3731 214.613C63.5143 214.594 63.6144 214.467 63.6028 214.326ZM51.8693 214.792C51.7991 214.668 51.6422 214.622 51.5167 214.69C51.3942 214.757 51.3483 214.911 51.4155 215.034C51.476 215.158 51.625 215.21 51.749 215.15C51.7524 215.148 51.7558 215.147 51.7591 215.144C51.8861 215.081 51.9373 214.926 51.873 214.799C51.8723 214.796 51.8712 214.794 51.8693 214.792Z" fill="white"/>
<path d="M290.484 226.378C290.547 226.343 290.626 226.367 290.661 226.43C290.695 226.492 290.671 226.571 290.609 226.606C290.546 226.641 290.467 226.617 290.432 226.554C290.398 226.492 290.421 226.413 290.484 226.378ZM303.743 225.14C303.763 225.07 303.837 225.029 303.908 225.049C303.972 225.066 304.012 225.132 303.995 225.197C303.995 225.203 303.992 225.209 303.99 225.213C303.971 225.282 303.902 225.322 303.834 225.305C303.764 225.284 303.723 225.211 303.743 225.14ZM297.068 226.199C297.066 226.127 297.119 226.064 297.191 226.053C297.264 226.046 297.331 226.1 297.338 226.175C297.345 226.249 297.29 226.315 297.215 226.322C297.142 226.323 297.08 226.272 297.068 226.199ZM289.731 210.482C289.712 210.346 289.804 210.218 289.94 210.195C290.07 210.169 290.197 210.252 290.224 210.381C290.224 210.386 290.225 210.39 290.226 210.395C290.246 210.531 290.153 210.658 290.017 210.681C289.884 210.705 289.755 210.616 289.731 210.482ZM290.723 216.425C290.704 216.288 290.798 216.161 290.935 216.142C291.07 216.122 291.195 216.214 291.217 216.347C291.242 216.482 291.152 216.609 291.018 216.634C290.88 216.651 290.752 216.56 290.723 216.425ZM291.722 222.377C291.699 222.242 291.788 222.116 291.922 222.093C291.925 222.092 291.928 222.092 291.93 222.091C292.06 222.065 292.187 222.148 292.214 222.277C292.215 222.282 292.216 222.286 292.216 222.291C292.234 222.428 292.143 222.557 292.007 222.586C291.873 222.605 291.745 222.513 291.722 222.377ZM278.891 217.446C279.009 217.377 279.161 217.417 279.229 217.536C279.298 217.654 279.258 217.805 279.139 217.874C279.023 217.941 278.875 217.904 278.805 217.79C278.736 217.671 278.774 217.518 278.891 217.446ZM282.086 222.561C282.204 222.493 282.355 222.532 282.424 222.652C282.493 222.769 282.453 222.921 282.334 222.99C282.218 223.057 282.07 223.02 282 222.906C281.931 222.788 281.969 222.634 282.086 222.561ZM301.497 213.6C301.531 213.466 301.665 213.384 301.799 213.416C301.931 213.446 302.013 213.576 301.984 213.707C301.984 213.708 301.984 213.709 301.984 213.71C301.962 213.84 301.839 213.928 301.709 213.907C301.703 213.906 301.696 213.905 301.689 213.903C301.556 213.867 301.472 213.736 301.497 213.6ZM300.143 219.481C300.179 219.347 300.31 219.264 300.446 219.288C300.579 219.322 300.661 219.457 300.629 219.591C300.598 219.724 300.465 219.807 300.332 219.776C300.33 219.775 300.328 219.775 300.327 219.775C300.196 219.746 300.113 219.615 300.142 219.485C300.143 219.482 300.143 219.481 300.143 219.481ZM298.791 225.352C298.817 225.222 298.943 225.138 299.072 225.165C299.076 225.166 299.08 225.167 299.083 225.168C299.217 225.194 299.304 225.324 299.279 225.459C299.278 225.463 299.277 225.466 299.276 225.471C299.244 225.605 299.109 225.688 298.976 225.657C298.841 225.624 298.758 225.489 298.79 225.356C298.79 225.353 298.791 225.352 298.791 225.352ZM273.963 220.712C274.06 220.638 274.198 220.656 274.274 220.751C274.348 220.848 274.33 220.987 274.234 221.063C274.138 221.138 273.998 221.119 273.923 221.023C273.85 220.926 273.867 220.788 273.963 220.712ZM295.752 215.01C295.773 214.887 295.887 214.802 296.011 214.816C296.128 214.831 296.212 214.938 296.197 215.056C296.197 215.06 296.196 215.062 296.195 215.066C296.182 215.188 296.072 215.275 295.951 215.261C295.949 215.26 295.948 215.26 295.946 215.26C295.828 215.24 295.743 215.132 295.752 215.01ZM295.057 220.338C295.074 220.218 295.186 220.136 295.305 220.152C295.423 220.167 295.507 220.274 295.492 220.392C295.491 220.396 295.491 220.398 295.49 220.402C295.477 220.524 295.367 220.611 295.246 220.597C295.244 220.597 295.243 220.597 295.241 220.597C295.121 220.574 295.039 220.46 295.057 220.338ZM294.35 225.683C294.364 225.561 294.474 225.474 294.595 225.487C294.597 225.488 294.598 225.488 294.6 225.488C294.715 225.498 294.799 225.601 294.788 225.716C294.788 225.723 294.787 225.731 294.786 225.737C294.772 225.859 294.662 225.947 294.541 225.933C294.539 225.933 294.538 225.932 294.536 225.932C294.418 225.912 294.336 225.802 294.35 225.683ZM284.502 218.557C284.475 218.437 284.547 218.317 284.666 218.287C284.783 218.255 284.903 218.324 284.935 218.441C284.965 218.56 284.897 218.683 284.781 218.72C284.66 218.75 284.536 218.678 284.502 218.557ZM285.9 223.758C285.866 223.645 285.929 223.525 286.042 223.491C286.046 223.49 286.05 223.489 286.054 223.487C286.172 223.455 286.292 223.524 286.324 223.641C286.353 223.76 286.286 223.883 286.17 223.92C286.051 223.949 285.931 223.876 285.9 223.758ZM304.965 220.914C305.021 220.812 305.148 220.775 305.251 220.83C305.255 220.833 305.259 220.834 305.262 220.837C305.369 220.895 305.409 221.029 305.351 221.137C305.35 221.14 305.348 221.142 305.347 221.144C305.282 221.247 305.147 221.281 305.04 221.22C304.935 221.161 304.899 221.027 304.959 220.922C304.961 220.92 304.963 220.918 304.965 220.914ZM302.271 225.578C302.334 225.472 302.47 225.433 302.578 225.493C302.684 225.558 302.718 225.697 302.653 225.802C302.591 225.904 302.461 225.939 302.356 225.884C302.25 225.828 302.208 225.695 302.264 225.588C302.266 225.586 302.269 225.581 302.271 225.578ZM273.308 215.034C273.279 214.895 273.362 214.757 273.5 214.72C273.637 214.685 273.777 214.766 273.813 214.902C273.845 215.041 273.76 215.18 273.622 215.216C273.484 215.251 273.344 215.17 273.308 215.034ZM274.859 221.053C274.823 220.916 274.905 220.776 275.041 220.739C275.178 220.703 275.318 220.785 275.355 220.922C275.391 221.059 275.309 221.199 275.172 221.235C275.035 221.272 274.895 221.19 274.859 221.053ZM299.228 218.522C299.305 218.4 299.463 218.36 299.589 218.431C299.71 218.508 299.745 218.668 299.668 218.789C299.593 218.906 299.44 218.943 299.321 218.875C299.201 218.801 299.16 218.646 299.228 218.522ZM296.068 223.872C296.142 223.752 296.297 223.71 296.42 223.779C296.542 223.851 296.584 224.008 296.513 224.131C296.441 224.253 296.284 224.295 296.161 224.224C296.04 224.15 295.999 223.994 296.068 223.872ZM285.771 217.029C285.798 216.891 285.926 216.795 286.066 216.809C286.205 216.834 286.298 216.965 286.277 217.104C286.261 217.242 286.135 217.341 285.996 217.325C285.994 217.324 285.992 217.324 285.991 217.324C285.849 217.304 285.751 217.172 285.771 217.029C285.771 217.03 285.771 217.029 285.771 217.029ZM284.898 223.188C284.919 223.046 285.05 222.948 285.192 222.968C285.192 222.968 285.192 222.968 285.193 222.968C285.33 222.988 285.425 223.116 285.404 223.253C285.384 223.393 285.255 223.491 285.116 223.471C284.978 223.454 284.881 223.327 284.898 223.188ZM281.833 215.4C281.85 215.261 281.979 215.163 282.118 215.18C282.258 215.198 282.356 215.326 282.338 215.466C282.32 215.602 282.199 215.699 282.063 215.687C281.92 215.67 281.818 215.543 281.833 215.4ZM281.217 221.561C281.233 221.419 281.362 221.316 281.504 221.332C281.641 221.349 281.742 221.471 281.734 221.61C281.715 221.752 281.59 221.856 281.447 221.848C281.306 221.829 281.206 221.702 281.217 221.561ZM292.951 222.027C293.021 221.903 293.178 221.857 293.303 221.925C293.426 221.992 293.472 222.146 293.405 222.269C293.344 222.393 293.195 222.445 293.071 222.385C293.068 222.383 293.064 222.382 293.061 222.379C292.934 222.316 292.883 222.161 292.947 222.034C292.948 222.032 292.949 222.029 292.951 222.027Z" fill="white"/>
<path d="M47.5067 205.4C47.5403 205.4 47.5734 205.394 47.6064 205.383C47.759 205.328 47.8378 205.162 47.7827 205.011C46.65 201.93 45.5886 198.76 44.562 195.694C42.4409 189.358 40.2474 182.807 37.3004 176.672C32.1604 165.971 25.4777 158.408 17.4389 154.192C17.2974 154.117 17.1181 154.171 17.0422 154.312C16.9656 154.454 17.0207 154.629 17.164 154.704C25.0879 158.86 31.6848 166.335 36.7697 176.92C39.701 183.022 41.8888 189.557 44.0046 195.876C45.0324 198.946 46.0949 202.12 47.2306 205.209C47.2741 205.327 47.3866 205.4 47.5067 205.4Z" fill="#C4D9F8"/>
<path d="M21.2334 168.624C21.2601 168.624 21.2868 168.62 21.3141 168.613L30.492 166.048C30.648 166.004 30.7385 165.844 30.6944 165.69C30.6503 165.537 30.4897 165.446 30.3313 165.49L21.1534 168.055C20.9974 168.099 20.9069 168.259 20.951 168.413C20.9875 168.54 21.1047 168.624 21.2334 168.624Z" fill="#C4D9F8"/>
<path d="M19.9103 166.604C19.937 166.604 19.9637 166.6 19.991 166.593L29.0198 164.069C29.1758 164.026 29.2663 163.865 29.2222 163.712C29.1782 163.558 29.0169 163.466 28.8592 163.512L19.8303 166.035C19.6743 166.079 19.5838 166.239 19.6279 166.393C19.6644 166.52 19.7816 166.604 19.9103 166.604Z" fill="#C4D9F8"/>
<path d="M18.5866 164.584C18.6133 164.584 18.64 164.58 18.6672 164.573L27.0656 162.225C27.2222 162.182 27.3127 162.022 27.2686 161.868C27.2246 161.714 27.061 161.624 26.9061 161.668L18.5066 164.015C18.3506 164.059 18.2601 164.219 18.3042 164.373C18.3407 164.5 18.4579 164.584 18.5866 164.584Z" fill="#C4D9F8"/>
<path d="M17.2637 162.564C17.2903 162.564 17.317 162.56 17.3443 162.553L25.1841 160.362C25.3402 160.319 25.4306 160.158 25.3866 160.005C25.3425 159.851 25.1818 159.759 25.0235 159.805L17.1836 161.995C17.0276 162.039 16.9371 162.199 16.9812 162.353C17.0177 162.48 17.1349 162.564 17.2637 162.564Z" fill="#C4D9F8"/>
<path d="M15.9402 160.544C15.9669 160.544 15.9936 160.54 16.0209 160.533L23.1949 158.528C23.3509 158.485 23.4414 158.324 23.3973 158.17C23.3532 158.017 23.1926 157.925 23.0342 157.971L15.8602 159.975C15.7042 160.019 15.6137 160.179 15.6578 160.333C15.6943 160.46 15.8115 160.544 15.9402 160.544Z" fill="#C4D9F8"/>
<path d="M14.6171 158.524C14.6438 158.524 14.6705 158.52 14.6978 158.513L20.8173 156.803C20.9739 156.759 21.0644 156.599 21.0203 156.445C20.9763 156.291 20.8127 156.201 20.6578 156.245L14.5371 157.955C14.3811 157.999 14.2906 158.159 14.3347 158.313C14.3712 158.44 14.4884 158.524 14.6171 158.524Z" fill="#C4D9F8"/>
<path d="M13.2936 156.504C13.3203 156.504 13.347 156.5 13.3742 156.493L18.2085 155.142C18.3646 155.098 18.455 154.938 18.411 154.784C18.3669 154.631 18.2068 154.54 18.0479 154.584L13.2136 155.935C13.0576 155.979 12.9671 156.139 13.0112 156.293C13.0477 156.42 13.1649 156.504 13.2936 156.504Z" fill="#C4D9F8"/>
<path d="M30.4953 166.03C30.6264 166.03 30.7453 165.944 30.7795 165.813L33.1534 156.697C33.1934 156.542 33.0989 156.384 32.9423 156.345C32.7869 156.304 32.6256 156.398 32.585 156.553L30.2111 165.669C30.1711 165.824 30.2656 165.982 30.4222 166.022C30.4466 166.027 30.4715 166.03 30.4953 166.03Z" fill="#C4D9F8"/>
<path d="M28.6551 163.857C28.7861 163.857 28.905 163.771 28.9392 163.64L31.0748 155.441C31.1148 155.286 31.0203 155.128 30.8637 155.089C30.7088 155.049 30.5464 155.142 30.5064 155.297L28.3709 163.496C28.3308 163.651 28.4254 163.809 28.582 163.849C28.6063 163.855 28.6307 163.857 28.6551 163.857Z" fill="#C4D9F8"/>
<path d="M26.7728 161.846C26.9039 161.846 27.0228 161.759 27.057 161.629L28.9959 154.185C29.036 154.03 28.9414 153.872 28.7848 153.832C28.6294 153.793 28.4681 153.886 28.4275 154.041L26.4886 161.484C26.4486 161.64 26.5431 161.797 26.6997 161.837C26.7241 161.844 26.7485 161.846 26.7728 161.846Z" fill="#C4D9F8"/>
<path d="M24.8704 159.912C25.0014 159.912 25.1203 159.826 25.1546 159.695L26.9166 152.93C26.9566 152.774 26.8621 152.617 26.7055 152.577C26.55 152.538 26.3882 152.63 26.3482 152.785L24.5862 159.551C24.5461 159.706 24.6407 159.864 24.7967 159.904C24.8216 159.909 24.846 159.912 24.8704 159.912Z" fill="#C4D9F8"/>
<path d="M22.8967 158.252C23.0278 158.252 23.1467 158.166 23.1809 158.035L24.838 151.674C24.878 151.519 24.7835 151.361 24.6269 151.321C24.4714 151.281 24.3102 151.374 24.2696 151.53L22.6125 157.891C22.5725 158.046 22.667 158.204 22.8231 158.244C22.848 158.25 22.8724 158.252 22.8967 158.252Z" fill="#C4D9F8"/>
<path d="M20.8916 156.714C21.0227 156.714 21.1416 156.628 21.1758 156.497L22.7586 150.418C22.7987 150.263 22.7041 150.105 22.5475 150.065C22.3921 150.024 22.2303 150.119 22.1902 150.273L20.6074 156.352C20.5674 156.508 20.6619 156.665 20.818 156.705C20.8429 156.711 20.8667 156.714 20.8916 156.714Z" fill="#C4D9F8"/>
<path d="M18.7948 155.522C18.9259 155.522 19.0448 155.436 19.079 155.305L20.6798 149.162C20.7198 149.006 20.6253 148.849 20.4687 148.809C20.3144 148.77 20.1514 148.863 20.1114 149.017L18.5106 155.161C18.4706 155.316 18.5651 155.474 18.7211 155.514C18.7461 155.519 18.771 155.522 18.7948 155.522Z" fill="#C4D9F8"/>
<path d="M107.241 206.218H59.9931L50.6001 196.555H97.8483L107.241 206.218Z" fill="#D6D7D8"/>
<path d="M231.963 112.878C231.252 118.501 230.542 124.124 229.832 129.748C230.597 128.98 231.788 128.875 232.871 128.845C239.788 128.648 239.908 132.517 246.802 131.945C253.697 131.372 267.687 126.055 271.901 120.576C268.029 118.856 263.657 118.818 259.449 118.307C250.652 117.239 242.288 114.024 233.768 111.59C233.377 111.478 232.939 111.373 232.581 111.565C232.138 111.803 232.026 112.378 231.963 112.878Z" fill="#D62929"/>
<path d="M231.335 123.809C228.249 126.145 226.522 130.156 226.951 134C227.243 136.617 228.447 139.268 227.671 141.785C227.041 143.83 225.246 145.263 224.006 147.008C218.751 154.402 224.047 166.026 218.358 173.092C215.708 176.384 211.307 177.716 207.108 178.224C202.989 178.722 198.796 178.595 194.714 177.851C196.252 184.775 196.685 191.943 195.992 199.003C209.803 199.055 223.782 197.991 236.898 193.668C237.728 193.395 238.574 193.096 239.235 192.527C240.415 191.512 240.772 189.863 241.08 188.338C244.829 169.786 251.398 151.805 260.493 135.202C250.846 131.223 241.124 127.425 231.335 123.809Z" fill="#151A4F"/>
<path d="M259.608 125.894C257.242 131.047 254.877 136.199 252.511 141.351C253.471 140.847 254.64 141.103 255.683 141.399C262.34 143.281 268.667 146.271 275.416 147.788C282.165 149.306 289.735 149.158 295.4 145.193C292.223 142.393 288.062 141.048 284.202 139.301C276.13 135.649 269.115 130.077 261.718 125.206C261.378 124.982 260.993 124.751 260.594 124.826C260.098 124.922 259.818 125.436 259.608 125.894Z" fill="url(#paint0_linear_23:988)"/>
<path d="M76.4577 193.902L74.8145 199.76C74.8145 199.76 78.7264 194.995 78.648 195.112C78.5697 195.23 76.4577 193.902 76.4577 193.902Z" fill="#23286B"/>
<path d="M237.767 156.036C238.674 154.265 238.595 152.179 238.799 150.202C239.464 143.773 243.564 137.8 249.329 134.861C254.045 142.75 266.006 141.754 273.415 147.202C265.297 166.691 254.784 185.184 242.187 202.134C236.176 203.188 224.809 202.336 220.617 202.808C202.437 204.86 193.236 203.618 174.978 202.44C178.676 195.773 179.058 187.374 175.98 180.401C182.648 177.697 189.993 174.954 196.859 177.112C198.602 177.66 200.236 178.508 201.969 179.086C206.179 180.489 210.738 180.23 215.168 179.956C216.78 179.856 218.461 179.735 219.847 178.908C224.461 176.151 222.31 168.579 225.593 164.326C228.647 160.37 235.492 160.483 237.767 156.036Z" fill="url(#paint1_linear_23:988)"/>
<path d="M116.456 189.188C114.312 190.274 112.103 191.232 109.843 192.053C107.699 192.832 105.46 193.495 103.181 193.41C100.561 193.312 97.2695 191.568 94.491 191.284C92.3851 191.07 90.6929 192.514 89.8355 192.378C87.1409 191.809 85.7927 190.559 84.1244 188.98C83.0326 187.947 80.4756 187.472 79.0778 186.52C79.7706 189.354 78.1335 191.731 76.3134 194.012C75.5117 195.017 73.7681 195.962 73.21 194.804C75.2516 191.567 76.5631 187.873 77.016 184.075C80.3532 183.469 83.8753 183.923 86.9493 185.354C88.8612 186.242 90.7407 187.531 92.8472 187.422C94.1495 187.355 102.628 184.044 103.919 183.86C111.889 182.723 107.76 184.675 112.648 182.912C118.325 183.899 117.994 186.204 116.456 189.188Z" fill="#FFBEB6"/>
<path d="M78.5079 196.083L75.7214 194.522L88.9327 171.016L91.7191 172.577L78.5079 196.083Z" fill="#D62929"/>
<path d="M92.9689 189.815C92.4665 189.376 90.8875 188.882 90.2271 188.98C87.8807 189.332 86.825 190.011 84.6946 190.127C82.1022 190.268 77.6297 191.777 77.6603 193.089C77.6811 193.94 78.6622 194.491 79.503 194.631C80.3433 194.771 81.1989 194.572 82.0276 194.375C85.0845 193.646 87.5613 193.068 90.6182 192.339C91.2167 192.196 92.333 191.522 92.7694 191.089C93.207 190.657 93.4316 190.219 92.9689 189.815Z" fill="#FFBEB6"/>
<path d="M132.64 158.463C130.237 162.586 118.12 182.185 116.824 182.156C110.208 182.006 105.249 183.293 100.126 184.999C102.672 187.895 104.13 190.424 103.442 194.216C112.752 194.743 115.301 196.14 125.742 192.578C127.986 182.509 137.336 168.929 137.144 158.616C137.131 157.915 137.083 157.142 136.594 156.64C135.412 155.428 133.49 157.002 132.64 158.463Z" fill="#89B3F4"/>
<path d="M130.632 162.614C131.331 161.61 130.446 158.892 129.726 157.902C126.99 154.136 124.056 152.007 120.625 148.859C122.961 147.782 124.89 142.136 125.741 139.712C128.725 142.975 132.632 148.92 136.931 149.966C135.341 154.411 133.222 158.666 130.632 162.614Z" fill="#F2A19C"/>
<path d="M117.429 130.732C115.455 130.61 113.481 130.488 111.507 130.366C110.561 130.307 109.583 130.253 108.694 130.579C108.068 130.809 107.523 131.213 106.99 131.612C104.855 133.208 102.583 135.002 101.922 137.582C101.193 140.424 102.728 143.469 105.001 145.327C105.791 145.972 106.688 146.532 107.245 147.386C108.048 148.62 107.935 150.374 106.98 151.495C109.607 151.797 111.519 154.235 114.083 154.879C115.477 155.23 116.946 155.018 118.361 154.764C120.07 154.457 121.799 154.078 123.307 153.218C126.17 151.585 127.879 148.337 128.175 145.058C128.471 141.78 127.496 138.49 125.984 135.564C125.345 134.331 124.585 133.116 123.467 132.29C121.771 131.038 119.535 130.862 117.429 130.732Z" fill="#FFBEB6"/>
<path d="M126.042 142.79C123.757 141.864 121.203 142.853 118.75 143.101C113.719 143.61 108.975 140.948 104.621 138.377C103.566 137.754 102.479 137.101 101.78 136.096C101.223 135.293 100.957 134.318 100.876 133.344C100.503 128.869 104.508 124.522 109.005 124.52C110.212 124.519 111.476 124.777 112.588 124.308C114.921 123.324 115.214 119.809 117.483 118.685C119.994 117.441 123.119 119.932 125.721 118.892C127.825 118.051 128.522 115.333 130.417 114.089C132.958 112.421 136.338 114.047 138.759 115.883C141.182 117.719 143.912 119.919 146.89 119.306C149.052 118.861 150.666 117.011 152.762 116.317C155.424 115.436 158.274 116.55 161.004 117.191C163.733 117.832 167.163 117.718 168.645 115.341C169.964 118.912 163.73 121.162 163.528 124.963C163.387 127.627 166.354 129.895 165.746 132.493C165.062 135.411 160.203 137.074 161.414 139.817C161.706 140.479 162.316 140.934 162.801 141.472C164.839 143.732 164.244 147.8 161.644 149.384C159.714 146.133 156.819 142.409 153.095 143.081C151.185 143.425 149.6 144.927 147.667 145.102C143.201 145.505 140.414 138.919 135.952 139.362C133.622 139.947 133.915 143.92 131.705 144.862C129.782 145.681 127.977 143.574 126.042 142.79Z" fill="#23286B"/>
<path d="M102.909 137.429C102.842 137.429 102.776 137.409 102.719 137.366C100.377 135.627 99.1047 132.636 99.4762 129.747C99.8489 126.857 101.838 124.286 104.544 123.195C105.468 122.823 106.473 122.612 107.446 122.407C109.162 122.046 110.782 121.706 111.922 120.552C112.465 120.002 112.872 119.275 113.265 118.572C113.867 117.495 114.49 116.38 115.637 115.805C117.008 115.118 118.522 115.485 119.986 115.841C121.345 116.171 122.628 116.482 123.781 116.011C125.046 115.492 125.726 114.214 126.448 112.861C127.186 111.474 127.951 110.039 129.415 109.425C129.577 109.357 129.765 109.433 129.833 109.596C129.902 109.758 129.825 109.945 129.662 110.013C128.408 110.539 127.73 111.812 127.012 113.16C126.27 114.554 125.501 115.995 124.024 116.6C122.68 117.151 121.234 116.8 119.836 116.461C118.422 116.118 117.086 115.794 115.926 116.375C114.954 116.863 114.405 117.844 113.824 118.883C113.41 119.623 112.982 120.388 112.378 120.999C111.103 122.289 109.311 122.665 107.578 123.031C106.633 123.229 105.657 123.434 104.783 123.786C102.327 124.776 100.449 127.204 100.111 129.828C99.7724 132.451 100.974 135.275 103.1 136.853C103.242 136.959 103.271 137.158 103.166 137.3C103.103 137.384 103.006 137.429 102.909 137.429Z" fill="#23286B"/>
<path d="M136.748 170.575C136.463 167.612 135.554 164.744 135.106 161.801C134.657 158.859 134.715 155.686 136.223 153.117C137.73 150.549 137.397 147.131 140.168 148.226C142.621 149.195 147.508 153.567 148.796 155.865C152.455 162.391 157.979 167.64 163.417 172.783C165.007 174.287 166.617 175.805 168.519 176.889C172.525 179.17 177.447 178.722 181.976 177.857C183.159 186.326 183.976 195.414 184.425 203.953C170.635 205.428 156.325 201.272 145.478 192.642C141.897 189.792 138.56 186.265 137.413 181.839C136.468 178.189 137.11 174.327 136.748 170.575Z" fill="url(#paint2_linear_23:988)"/>
<path d="M105.744 148.712C105.714 148.712 105.684 148.712 105.654 148.711C105.478 148.708 105.337 148.563 105.341 148.386C105.344 148.212 105.487 148.073 105.661 148.073C105.684 148.072 105.716 148.074 105.745 148.074C107.424 148.074 109.087 147.032 109.81 145.518C109.885 145.359 110.075 145.291 110.236 145.367C110.395 145.443 110.463 145.634 110.387 145.793C109.561 147.521 107.662 148.712 105.744 148.712Z" fill="#23286B"/>
<path d="M125.622 189.78C123.968 193.585 123.048 197.706 122.929 201.852C121.162 201.193 119.394 200.534 117.627 199.875C116.603 197.416 115.361 195.047 113.92 192.805C113.298 191.929 117.746 187.633 119.316 184.829C120.062 183.496 123.52 188.13 125.622 189.78Z" fill="#FFBEB6"/>
<path d="M116.123 195.749C115.198 196.51 114.337 197.404 114.056 198.458C113.505 200.518 115.222 202.321 116.825 203.768C117.896 204.736 119.808 205.783 121.106 206.417C123.226 207.452 124.662 207.511 125.987 207.304C127.746 207.031 127.924 204.88 128.295 203.355C128.842 201.109 127.345 199.978 127.893 197.732C128.18 196.553 128.467 195.315 128.088 194.197C127.71 193.08 121.924 190.975 116.123 195.749Z" fill="url(#paint3_linear_23:988)"/>
<path d="M141.698 148.833C142.543 149.732 142.802 150.993 142.996 152.195C145.898 170.138 141.018 189.293 129.724 204.305C128.932 205.357 128.071 206.424 126.872 207.03C125.674 207.637 122.41 205.936 121.984 204.068C120.913 186.939 126.62 172.499 131.519 155.833C132.211 153.478 132.986 151.004 134.845 149.292C136.703 147.58 140.018 147.045 141.698 148.833Z" fill="#A1C3FC"/>
<path d="M116.064 150.777C117.153 150.777 118.036 149.895 118.036 148.808C118.036 147.72 117.153 146.838 116.064 146.838C114.975 146.838 114.092 147.72 114.092 148.808C114.092 149.895 114.975 150.777 116.064 150.777Z" fill="#F2A19C"/>
<path d="M241.988 147.151C242.059 147.127 242.081 147.08 242.058 147.009C242.034 146.938 241.987 146.916 241.916 146.939C241.845 146.963 241.822 147.01 241.845 147.081C241.87 147.153 241.94 147.128 241.988 147.151ZM249.505 138.827C249.552 138.851 249.623 138.826 249.647 138.778C249.671 138.731 249.646 138.66 249.599 138.637C249.551 138.613 249.48 138.638 249.457 138.685C249.362 138.756 249.434 138.851 249.505 138.827ZM245.437 142.779C245.484 142.803 245.532 142.825 245.602 142.801C245.626 142.754 245.649 142.706 245.625 142.636C245.578 142.612 245.53 142.589 245.46 142.613C245.366 142.685 245.39 142.755 245.437 142.779ZM252.343 155.589C252.414 155.683 252.532 155.682 252.627 155.611C252.721 155.539 252.72 155.421 252.649 155.327C252.577 155.233 252.459 155.234 252.365 155.306C252.223 155.354 252.248 155.543 252.343 155.589ZM248.815 151.974C248.887 152.068 249.005 152.067 249.099 151.996C249.193 151.924 249.192 151.806 249.121 151.712C249.05 151.618 248.931 151.619 248.837 151.691C248.742 151.762 248.743 151.88 248.815 151.974ZM245.31 148.31C245.381 148.404 245.499 148.403 245.594 148.332C245.687 148.26 245.687 148.142 245.616 148.048C245.544 147.954 245.426 147.955 245.332 148.027C245.237 148.098 245.237 148.216 245.31 148.31ZM242.214 159.394C242.307 159.322 242.354 159.227 242.354 159.11C242.282 159.016 242.187 158.97 242.069 158.97C241.975 159.042 241.928 159.137 241.952 159.207C241.977 159.396 242.072 159.442 242.214 159.394ZM240.335 154.703C240.429 154.631 240.476 154.536 240.475 154.419C240.404 154.325 240.309 154.278 240.191 154.279C240.097 154.351 240.05 154.446 240.074 154.516C240.122 154.657 240.264 154.727 240.335 154.703ZM256.112 146.133C256.207 146.179 256.348 146.131 256.395 146.037C256.441 145.942 256.393 145.801 256.298 145.754C256.203 145.708 256.062 145.756 256.015 145.85C255.968 145.945 256.018 146.086 256.112 146.133ZM251.459 144.085C251.554 144.131 251.695 144.083 251.742 143.988C251.788 143.893 251.74 143.753 251.645 143.706C251.55 143.659 251.409 143.708 251.362 143.802C251.315 143.897 251.364 144.038 251.459 144.085ZM246.853 142.06C246.948 142.107 247.089 142.058 247.135 141.964C247.182 141.869 247.133 141.728 247.039 141.682C246.944 141.635 246.802 141.684 246.756 141.778C246.686 141.919 246.758 142.014 246.853 142.06ZM237.563 161.057C237.634 161.032 237.751 160.914 237.68 160.82C237.655 160.749 237.537 160.632 237.442 160.703C237.371 160.727 237.254 160.846 237.326 160.94C237.326 161.059 237.42 161.105 237.563 161.057ZM252.275 149.255C252.371 149.302 252.489 149.301 252.536 149.206C252.582 149.111 252.558 149.041 252.487 148.947C252.392 148.9 252.273 148.901 252.226 148.996C252.179 149.091 252.181 149.209 252.275 149.255ZM248.331 147.084C248.427 147.131 248.545 147.13 248.591 147.035C248.638 146.94 248.614 146.87 248.542 146.775C248.447 146.729 248.329 146.729 248.282 146.824C248.234 146.92 248.236 147.037 248.331 147.084ZM244.41 144.867C244.505 144.913 244.624 144.913 244.67 144.818C244.717 144.723 244.693 144.652 244.621 144.558C244.526 144.511 244.408 144.512 244.361 144.607C244.29 144.748 244.315 144.82 244.41 144.867ZM244.291 155.054C244.363 155.148 244.481 155.147 244.575 155.075C244.669 155.004 244.668 154.886 244.597 154.792C244.526 154.698 244.408 154.699 244.313 154.77C244.218 154.842 244.196 155.007 244.291 155.054ZM241.473 151.552C241.545 151.646 241.663 151.645 241.734 151.621C241.827 151.55 241.827 151.432 241.756 151.338C241.684 151.244 241.566 151.245 241.472 151.316C241.401 151.339 241.401 151.458 241.473 151.552ZM252.923 140.151C253.041 140.15 253.112 140.126 253.111 140.008C253.111 139.89 253.039 139.796 252.968 139.82C252.85 139.821 252.755 139.893 252.756 140.011C252.756 140.011 252.827 140.105 252.923 140.151ZM248.469 139.614C248.588 139.613 248.682 139.542 248.681 139.423C248.681 139.305 248.609 139.211 248.49 139.212C248.372 139.213 248.277 139.284 248.302 139.355C248.278 139.521 248.351 139.615 248.469 139.614C248.421 139.591 248.469 139.614 248.469 139.614ZM241.018 164.342C241.089 164.435 241.207 164.435 241.302 164.363C241.396 164.292 241.395 164.174 241.324 164.08C241.252 163.986 241.134 163.987 241.04 164.058C240.945 164.13 240.946 164.248 241.018 164.342ZM237.747 160.323C237.819 160.416 237.937 160.416 238.031 160.344C238.125 160.272 238.124 160.155 238.053 160.06C237.982 159.967 237.863 159.967 237.769 160.039C237.697 160.063 237.675 160.229 237.747 160.323ZM251.679 145.194C251.797 145.194 251.892 145.122 251.89 145.004C251.89 144.886 251.818 144.791 251.7 144.793C251.581 144.793 251.487 144.865 251.488 144.983C251.441 145.077 251.561 145.195 251.679 145.194ZM246.468 144.639C246.586 144.638 246.681 144.567 246.679 144.448C246.679 144.33 246.607 144.236 246.488 144.237C246.37 144.238 246.275 144.309 246.277 144.428C246.301 144.499 246.349 144.639 246.468 144.639ZM245.923 154.972C246.019 155.018 246.16 154.97 246.206 154.876C246.253 154.781 246.204 154.64 246.11 154.593C246.015 154.547 245.873 154.595 245.827 154.689C245.78 154.784 245.829 154.925 245.923 154.972ZM241.362 152.498C241.457 152.545 241.598 152.497 241.644 152.402C241.691 152.307 241.643 152.166 241.548 152.12C241.452 152.073 241.311 152.122 241.265 152.216C241.218 152.31 241.219 152.428 241.362 152.498ZM245.048 158.429C245.143 158.475 245.284 158.427 245.33 158.333C245.377 158.238 245.329 158.097 245.234 158.05C245.138 158.004 245.02 158.004 244.951 158.146C244.905 158.241 244.953 158.382 245.048 158.429ZM240.58 155.765C240.674 155.811 240.816 155.763 240.862 155.669C240.909 155.574 240.908 155.456 240.766 155.386C240.671 155.34 240.529 155.388 240.434 155.46C240.436 155.578 240.485 155.718 240.58 155.765ZM246.157 147.666C246.275 147.666 246.37 147.594 246.417 147.499C246.416 147.381 246.345 147.287 246.25 147.24C246.132 147.241 246.037 147.312 245.99 147.407C245.944 147.503 246.062 147.62 246.157 147.666Z" fill="white"/>
<path d="M55 112.2C55.6628 112.2 56.2 111.663 56.2 111C56.2 110.337 55.6628 109.8 55 109.8C54.3373 109.8 53.8 110.337 53.8 111C53.8 111.663 54.3373 112.2 55 112.2Z" fill="#A1C3FC"/>
<path d="M62.8876 46.4001C58.4746 46.4001 54.078 46.3576 49.8502 46.2086C49.0873 46.1823 48.2522 46.1836 47.3668 46.1854C44.3811 46.1948 40.9891 46.1998 38.5615 45.0887C35.5099 43.6916 34.1724 42.7815 33.2236 39.3512C31.8554 34.4067 33.9909 31.4522 36.9239 28.1039C40.7592 23.7241 46.2673 23.3905 52.5829 23.4111C52.9295 23.4124 53.2096 23.6941 53.2083 24.0396C53.2071 24.3845 52.9264 24.663 52.5804 24.663C52.5798 24.663 52.5785 24.663 52.5779 24.663C46.6183 24.6461 41.357 24.9454 37.8689 28.9271C34.5969 32.6634 33.3241 35.007 34.4336 39.0182C35.253 41.9784 36.2408 42.6488 39.0846 43.9508C41.2616 44.9473 44.4985 44.9391 47.3637 44.9335C48.2597 44.931 49.1068 44.9298 49.8942 44.9573C56.9676 45.2058 64.5328 45.1563 71.8493 45.1088C75.6224 45.0844 79.3661 45.0393 82.9138 45.0969C88.6548 45.1908 93.6085 45.2697 96.1905 40.476C98.223 36.7021 97.5731 33.0265 94.3117 29.8472C91.1477 26.7631 85.8575 26.0752 82.0039 28.2498C81.749 28.3931 81.4288 28.3431 81.2303 28.1271C81.0332 27.9112 81.0112 27.5875 81.1789 27.3478C82.9659 24.7882 81.6705 21.0738 79.4672 18.7277C76.6484 15.725 71.7337 14.3842 67.2303 15.3945C61.6331 16.6495 57.3274 21.152 55.1052 28.0714C54.9998 28.4007 54.6475 28.5822 54.316 28.477C53.9857 28.3719 53.8036 28.0194 53.9097 27.6902C57.097 17.76 63.4509 14.9588 66.9547 14.1732C71.9522 13.0527 77.223 14.5043 80.3845 17.872C82.5082 20.1336 83.8657 23.5476 83.0036 26.4201C87.0951 24.9454 92.0657 25.9075 95.1896 28.9528C98.8396 32.5113 99.5887 36.8142 97.2962 41.0688C94.3525 46.5335 88.7854 46.4452 82.8931 46.3488C79.3535 46.2912 75.6205 46.3363 71.8568 46.3607C68.893 46.3801 65.8866 46.4001 62.8876 46.4001Z" fill="#A1C3FC"/>
<path d="M47.7 88C48.5284 88 49.2 87.3284 49.2 86.5C49.2 85.6716 48.5284 85 47.7 85C46.8715 85 46.2 85.6716 46.2 86.5C46.2 87.3284 46.8715 88 47.7 88Z" fill="#A1C3FC"/>
<path d="M137.942 60.4C135.339 60.4 132.747 60.3749 130.254 60.2872C129.804 60.2717 129.312 60.2724 128.789 60.2735C127.029 60.2791 125.029 60.282 123.597 59.6276C121.798 58.8048 121.009 58.2688 120.45 56.2485C119.643 53.3364 120.902 51.5963 122.632 49.6243C124.893 47.0448 128.141 46.8483 131.865 46.8605C132.07 46.8612 132.235 47.0271 132.234 47.2306C132.233 47.4337 132.068 47.5978 131.864 47.5978C131.863 47.5978 131.863 47.5978 131.862 47.5978C128.348 47.5878 125.246 47.7641 123.189 50.1091C121.259 52.3097 120.509 53.69 121.163 56.0523C121.646 57.7958 122.229 58.1906 123.906 58.9574C125.189 59.5443 127.098 59.5395 128.788 59.5362C129.316 59.5347 129.815 59.534 130.28 59.5502C134.451 59.6966 138.912 59.6675 143.226 59.6394C145.451 59.6251 147.658 59.5985 149.75 59.6324C153.136 59.6877 156.057 59.7342 157.579 56.911C158.778 54.6883 158.394 52.5235 156.471 50.6511C154.606 48.8347 151.486 48.4295 149.214 49.7102C149.063 49.7947 148.875 49.7652 148.758 49.638C148.641 49.5108 148.628 49.3202 148.727 49.179C149.781 47.6715 149.017 45.4839 147.718 44.1021C146.056 42.3336 143.158 41.544 140.502 42.139C137.202 42.8782 134.663 45.53 133.353 49.6052C133.29 49.7991 133.083 49.906 132.887 49.8441C132.692 49.7821 132.585 49.5746 132.648 49.3806C134.527 43.5322 138.274 41.8824 140.34 41.4197C143.287 40.7598 146.395 41.6147 148.259 43.5982C149.511 44.9301 150.312 46.9408 149.803 48.6326C152.216 47.7641 155.147 48.3307 156.989 50.1242C159.141 52.2201 159.583 54.7543 158.231 57.2601C156.495 60.4785 153.213 60.4265 149.738 60.3698C147.651 60.3358 145.45 60.3624 143.23 60.3768C141.483 60.3882 139.71 60.4 137.942 60.4Z" fill="#C8DCF9"/>
<path d="M239.703 44.8C236.256 44.8 232.822 44.7666 229.519 44.6496C228.923 44.629 228.271 44.6299 227.579 44.6314C225.247 44.6388 222.597 44.6427 220.701 43.7702C218.317 42.6731 217.272 41.9584 216.531 39.2647C215.462 35.3819 217.13 33.0618 219.422 30.4325C222.418 26.9931 226.72 26.7311 231.654 26.7473C231.924 26.7483 232.143 26.9695 232.142 27.2408C232.141 27.5117 231.922 27.7304 231.652 27.7304C231.651 27.7304 231.65 27.7304 231.65 27.7304C226.994 27.7171 222.885 27.9521 220.16 31.0789C217.604 34.0129 216.61 35.8533 217.476 39.0032C218.116 41.3277 218.888 41.8542 221.109 42.8766C222.81 43.6591 225.338 43.6527 227.577 43.6483C228.277 43.6463 228.938 43.6454 229.553 43.667C235.079 43.8621 240.988 43.8233 246.704 43.7859C249.651 43.7668 252.575 43.7314 255.347 43.7766C259.831 43.8503 263.701 43.9123 265.718 40.148C267.306 37.1844 266.798 34.298 264.25 31.8014C261.779 29.3796 257.646 28.8393 254.636 30.547C254.437 30.6596 254.187 30.6202 254.032 30.4506C253.878 30.2811 253.861 30.0269 253.992 29.8387C255.388 27.8287 254.376 24.9118 252.654 23.0695C250.453 20.7115 246.613 19.6586 243.096 20.452C238.723 21.4376 235.36 24.9733 233.624 30.4069C233.542 30.6655 233.266 30.808 233.007 30.7254C232.749 30.6428 232.607 30.3661 232.69 30.1075C235.18 22.3096 240.143 20.1099 242.88 19.493C246.784 18.6131 250.901 19.753 253.371 22.3976C255.03 24.1735 256.09 26.8545 255.417 29.1102C258.613 27.9521 262.496 28.7076 264.936 31.099C267.787 33.8935 268.373 37.2724 266.582 40.6135C264.282 44.9047 259.933 44.8354 255.331 44.7597C252.566 44.7145 249.65 44.7499 246.71 44.7691C244.394 44.7843 242.046 44.8 239.703 44.8Z" fill="#A1C3FC"/>
<path d="M22.9999 181.8C23.8836 181.8 24.5999 181.084 24.5999 180.2C24.5999 179.316 23.8836 178.6 22.9999 178.6C22.1162 178.6 21.3999 179.316 21.3999 180.2C21.3999 181.084 22.1162 181.8 22.9999 181.8Z" fill="#A1C3FC"/>
<path d="M15.6999 67.4C16.4179 67.4 16.9999 66.818 16.9999 66.1C16.9999 65.3821 16.4179 64.8 15.6999 64.8C14.9819 64.8 14.3999 65.3821 14.3999 66.1C14.3999 66.818 14.9819 67.4 15.6999 67.4Z" fill="#A1C3FC"/>
<path d="M12.5 74.6001C13.3284 74.6001 14 73.9285 14 73.1001C14 72.2717 13.3284 71.6001 12.5 71.6001C11.6716 71.6001 11 72.2717 11 73.1001C11 73.9285 11.6716 74.6001 12.5 74.6001Z" fill="#A1C3FC"/>
<path d="M122.9 89.6001C123.728 89.6001 124.4 88.9285 124.4 88.1001C124.4 87.2717 123.728 86.6001 122.9 86.6001C122.071 86.6001 121.4 87.2717 121.4 88.1001C121.4 88.9285 122.071 89.6001 122.9 89.6001Z" fill="#A1C3FC"/>
<defs>
<linearGradient id="paint0_linear_23:988" x1="252.511" y1="136.746" x2="295.4" y2="136.746" gradientUnits="userSpaceOnUse">
<stop stop-color="#E94A47"/>
<stop offset="1" stop-color="#D62929"/>
</linearGradient>
<linearGradient id="paint1_linear_23:988" x1="227.649" y1="148.333" x2="214.274" y2="218.314" gradientUnits="userSpaceOnUse">
<stop stop-color="#23286B"/>
<stop offset="1" stop-color="#151A4F"/>
</linearGradient>
<linearGradient id="paint2_linear_23:988" x1="162.394" y1="143.716" x2="158.717" y2="193.585" gradientUnits="userSpaceOnUse">
<stop stop-color="#A1C3FC"/>
<stop offset="1" stop-color="#89B3F4"/>
</linearGradient>
<linearGradient id="paint3_linear_23:988" x1="118.629" y1="205.219" x2="127.252" y2="192.908" gradientUnits="userSpaceOnUse">
<stop stop-color="#A1C3FC"/>
<stop offset="1" stop-color="#89B3F4"/>
</linearGradient>
</defs>
</svg>
